/* XPM */
static char *result[] = {
/* columns rows colors chars-per-pixel */
"64 64 92 1 ",
"  c black",
". c gray4",
"X c #131313",
"o c #333333",
"O c #3A3A3A",
"+ c #5A5A5A",
"@ c #D50000",
"# c #D70A0A",
"$ c #D81212",
"% c #D91B1B",
"& c #DB2323",
"* c #DC2A2A",
"= c #DD3333",
"- c #DF3A3A",
"; c #E03F3F",
": c #DF4141",
"> c #E04545",
", c #E24D4D",
"< c #E35454",
"1 c #E45B5B",
"2 c #E56161",
"3 c #E77070",
"4 c #E87171",
"5 c #E97A7A",
"6 c #01C853",
"7 c #0ACA5A",
"8 c #11CC5E",
"9 c #14CD60",
"0 c #1BCE65",
"q c #21CF69",
"w c #23D06A",
"e c #29D16F",
"r c #2BD271",
"t c #32D375",
"y c #37D478",
"u c #3BD57B",
"i c #42D67F",
"p c #FFEB3B",
"a c #FFEC43",
"s c #FFED4B",
"d c #FFED53",
"f c #FFEE5B",
"g c #FFEF62",
"h c #FFF067",
"j c #FFF06B",
"k c #FFF175",
"l c #FFF27B",
"z c #45D782",
"x c #4DD987",
"c c #54DB8C",
"v c #59DB8F",
"b c #5BDC90",
"n c #61DD95",
"m c #70E09F",
"M c #75E1A2",
"N c #7BE3A6",
"B c #7EE3A8",
"V c #EB8383",
"C c #EC8B8B",
"Z c #EE9494",
"A c #EF9B9B",
"S c #F1A7A7",
"D c #F1A9A9",
"F c #F3BABA",
"G c #83E4AB",
"H c #88E6AF",
"J c #8CE6B2",
"K c #90E7B4",
"L c #91E8B5",
"P c #97E9BA",
"I c #9DEABD",
"U c #FFF282",
"Y c #FFF38B",
"T c #FFF492",
"R c #FFF59E",
"E c #FFF6A5",
"W c #FFF7AD",
"Q c #FFF7B2",
"! c #FFF8B6",
"~ c #FFF8BC",
"^ c #A3EBC2",
"/ c #A9ECC5",
"( c #AFEEC9",
") c #B2EECC",
"_ c #BBF0D1",
"` c #F5C4C4",
"' c #C2F2D6",
"] c #CCF4DC",
"[ c #D0F4DF",
"{ c #FFF9C2",
"} c #D5F6E3",
"| c None",
/* pixels */
"||||||||||||||||||||||||||||||||||||||||||||||||||||||||||||||||",
"||||||||||||||||||||||||||||||||||||||||||||||||||||||||||||||||",
"||||||||||||||||||||||||||||||||||||||||||||||||||||||||||||||||",
"||||||||||||||||||||||||||||||||||||||||||||||||||||||||||||||||",
"||||||||||||||||||||||||||||||||||||||||||||||||||||||||||||||||",
"||||||||||||||||||||||||||||||||||||||||||||||||||||||||||||||||",
"||||||||||||||||||||||||||||||||||||||||||||||||||||||||||||||||",
"||||||||||||||||||||||||||||||||||||||||||||||||||||||||||||||||",
"||||||||||||||||||||||||||||   XX + .|||||||||||||||||||||||||||",
"|||||||||||||||||||||||||.  ppppUppsa o ||||||||||||||||||||||||",
"||||||||||||||||||||||| .apgppalppEaRgsp. ||||||||||||||||||||||",
"|||||||||||||||||||||  ppgpppppppER{pUkpja. ||||||||||||||||||||",
"|||||||||||||||||||  pppgppkpgpsERQER~kTskhf .||||||||||||||||||",
"|||||||||||||||||| ppappppkkkpjdpQRREERUElpppp.|||||||||||||||||",
"||||||||||||||||| papppppkkUklRggpEUlEE!Uhkkjga.||||||||||||||||",
"|||||||||||||||| paasgppsskkkpUplEEflURUakERlhlp |||||||||||||||",
"||||||||||||||| ppsgpppgsppUpjppRTRp!{Uak~EQQTgpp ||||||||||||||",
"||||||||||||||| psgpsksgphjldpaERRkERgalR~~!Tpkah ||||||||||||||",
"|||||||||||||| pppadUYksgsdddjEkERRgpaT{Qk{EhUlkag |||||||||||||",
"||||||||||||| ppspsUUUUlgpdsshpkkRpapklk{{~glllTkga ||||||||||||",
"||||||||||||| psppddTUldpppdjppgTgapaglYkkldU~Rkgpp.||||||||||||",
"|||||||||||| pppsksdsYpapsdsppgggapYgppTgRTkjgYTagaa |||||||||||",
"|||||||||||| ppafdflUjpdpdppssdpapghpUggUUkEEWRkRpUp.|||||||||||",
"||||||||||| 66966q0077ecz6800060666t66686JMxyxc^I)tu6 ||||||||||",
"||||||||||| 6888q6y67w0e00r00w0866t66xtty7cc9y/(/xJu6.||||||||||",
"||||||||||| 6680yz8q69000660ww6t6676xxx6byNnmcm(IJt66 ||||||||||",
"||||||||||| 660rttzqu96t88660t66666xcxxxtxMxKJJPH7ctt ||||||||||",
"|||||||||| 6666ttztt8qrr06w8i66x6t97xxx67txmG8bMiJmx6t |||||||||",
"|||||||||| 68666ztt00r000ew666vvxuy6tx6i666HbBtIMxNIxb |||||||||",
"|||||||||| 668899t00660006666xxxxxvtty666tnNxJci7MIGx6o|||||||||",
"|||||||||| 666w999rq6660668676xxxt66x7tti76cLMnG7LGNcxO|||||||||",
"|||||||||| 6966679989888966y666x676xxx7tt669c7^G)n^cx6 |||||||||",
"|||||||||| 866q78676886868e68tyy66xxxcctt6uibIIIIHnGtn |||||||||",
"|||||||||| 66e0069666766800068676ytxxxt6666v0t_I_iLmc6o|||||||||",
"|||||||||| 6e00t0q66668600000866t666xt76x6vv7Gc[x_xMcm+|||||||||",
"|||||||||| 660yt0886686600e0666676ttu66xxx6tG(]]I^Gmb6 |||||||||",
"||||||||||| 60te0086669q00086676667676mmxxxMxHI}m'vm7X||||||||||",
"||||||||||| 98y0006967q0yee86776t777t76ccxu6mx)tH_MByX||||||||||",
"|||||||||||X6660ee06808e006688t666t6t676xt76tmBM_'/MNO||||||||||",
"||||||||||| 699rqq0uqq66y6966t66ztt6c7ntn66uuy9G[]]IN ||||||||||",
"|||||||||||| @@@%--@$*$,**@$@#@,,,@3,,==#@;;@-$3F`D<o|||||||||||",
"|||||||||||| $@@$%@*%*:=>%;&@@,,,,V3,3,=,%-#-1#-4F,$ |||||||||||",
"||||||||||||| @$$$*=-::<;=%#@;@,<<@,,,@,11=5@=$11Z@O||||||||||||",
"||||||||||||| @@@%%*2:<%>@@==@@@4@#@,@<,1S,1,@-=->@+||||||||||||",
"|||||||||||||| @@$%-==*:&@>@@,=1;#*=;##,C4@D,C@>@# |||||||||||||",
"|||||||||||||||X@@@**-*$$@$$,,,#;@;;-#;=C@D`D4C-@ ||||||||||||||",
"||||||||||||||| @&$$@%@*$$*,1<,,*$#@*@1--CS``S5@@ ||||||||||||||",
"|||||||||||||||| @@$$&$@@%&%<1,=##;=@=#@V,`F`,;@ |||||||||||||||",
"||||||||||||||||| @@@@@$*>%%%5@#@1@@,@=C1,3`4$@ ||||||||||||||||",
"|||||||||||||||||| @@@@@@%%>1-@,==@C,3,Z,CCS##o|||||||||||||||||",
"|||||||||||||||||||  @$@@@%@@#,43@AVV<33,4-> +||||||||||||||||||",
"|||||||||||||||||||||  @$$$@@,,,,C4VAV=@,@..||||||||||||||||||||",
"|||||||||||||||||||||||  @@@%$,,4@,,V@-=O ||||||||||||||||||||||",
"|||||||||||||||||||||||||  o@@@4@#=3-.  ||||||||||||||||||||||||",
"|||||||||||||||||||||||||||| ooo ooo.|||||||||||||||||||||||||||",
"||||||||||||||||||||||||||||||||||||||||||||||||||||||||||||||||",
"||||||||||||||||||||||||||||||||||||||||||||||||||||||||||||||||",
"||||||||||||||||||||||||||||||||||||||||||||||||||||||||||||||||",
"||||||||||||||||||||||||||||||||||||||||||||||||||||||||||||||||",
"||||||||||||||||||||||||||||||||||||||||||||||||||||||||||||||||",
"||||||||||||||||||||||||||||||||||||||||||||||||||||||||||||||||",
"||||||||||||||||||||||||||||||||||||||||||||||||||||||||||||||||",
"||||||||||||||||||||||||||||||||||||||||||||||||||||||||||||||||",
"||||||||||||||||||||||||||||||||||||||||||||||||||||||||||||||||"
};
