/* XPM */
static char *result[] = {
/* columns rows colors chars-per-pixel */
"64 64 33 1 ",
"  c #4C2D16",
". c #4C2D17",
"X c #633B1B",
"o c #653D1C",
"O c #6A411E",
"+ c #774C25",
"@ c #854F22",
"# c #8C5621",
"$ c #8C5422",
"% c #8D5522",
"& c #8C5423",
"* c #8C5523",
"= c #8D5523",
"- c #8E5623",
"; c #8D5524",
": c #935A26",
"> c #945B27",
", c #9C622A",
"< c #9E642C",
"1 c #A1662E",
"2 c #B67A3C",
"3 c #B87A39",
"4 c #BE803D",
"5 c #AE8769",
"6 c #A1887F",
"7 c #AC957D",
"8 c #C68541",
"9 c #C68642",
"0 c #C18749",
"q c #C0894D",
"w c gray62",
"e c #A09D9A",
"r c None",
/* pixels */
"rrrrrrrrrrrrrrrrrrrrrrrrrrrrrr6rrrrrrrrrr1;;9rrrrrr6rrrrrrrrrrrr",
"rrrrrrrrrrrrrrrrrrrrrrrrrrrrrr6650rrrrr99@;19rrrrr566rrrrrrrrrrr",
"rrrrrrrrrrrrrrrrrrrrrrrrrrrrrr6666rrrrr99O4;;rrrr5669rrrrrrrrrrr",
"rrrrrrrrrrrrrrrrrrrrrrrrrrrrrrr65666r6r99..19rr65669rrrrrrrrrrrr",
"rrrrrrrrrrrrrrrrrrrrrrrrrrrrrrrr859666694+;;9556669rrrrrrrrrrrrr",
"rrrrrrrrrrrrrrrrrrrrrrrrrrrrrrrrr98566991919966659rrrrrrrrrrrrrr",
"rrrrrrrrrrrrrrrrrrrrrrrrrrrrrrrrrrrr6r&9;=99966rrrrrrrrrrrrrrrrr",
"rrrrrrrrrrrrrrrrrrrrrrrrrrrrrrrrrrrrrr;;11999rrrrrrrrrrrrrrrrrrr",
"rrrrrrrrrrrrrrrrrrrrrrrrrrrrrrrrrrrrrr;;9;;99rrrrrrrrrrrrrrrrrrr",
"rrrrrrrrrrrrrrrrrrrrrrrrrrrrrrrrrrrrrr;991999rrrrrrrrrrrrrrrrrrr",
"rrrrrrrrrrrrrrrrrrrrrrrrrrrrrrrq9rrrrrr999499rrrrwq9rrrrrrrrrrrr",
"rrrrrrrrrrrrrrrrrrrrrrrrrrrrrrr79rrrrrr499199rwwrww9rrrrrrrrrrrr",
"rrrrrrrrrrrrrrrrrrrrrrrrrrrrrrrww799779199;;99wwwewwrrrrrrrrrrrr",
"rrrrrrrrrrrrrrrrrrrrrrrrrrrrrrr79ww9www;;91499779ww9rrrrrrrrrrrr",
"rrrrrrrrrrrrrrrrrrrrrrrrrrrrrrr99wrrwwr149919rrrrw99rrrrrrrrrrrr",
"rrrrrrrrrrrrrrrrrrrrrrrrrrrrrrr99rrrrrr9139;;rrrrr99rrrrrrrrrrrr",
"rrrrrrrrrrrrrrrrrrrrrrrrrrrrrrrrrrrrrrr9;;919rrrrr99rrrrrrrrrrrr",
"rrrrrrrrrrrrrrrrrrrrrrrrrrrrrrrrrrrrrr491;;93rrrrrrrrrrrrrrrrrrr",
"rrrrrrrrrrrrrrrrrrrrrrrrrrrrrrrrrrrrr9199;=9:rrrrrrrrrrrrrrrrrrr",
"rrrrrrrrrrrrrrrrrrrrrrrrrrrrrrrrrrrrr9;=9119;;rrrrrrrrrrrrrrrrrr",
"rrrrrrrrrrrrrrrrrrrrrrrrrrrrrrrrrrrr991<99;;;;rrrrrrrrrrrrrrrrrr",
"rrrrrrrrrrrrrrrrrrrrrrrrrrrrrrrrrrr4949;;914>rrrrrrrrrrrrrrrrrrr",
"rrrrrrrrrrrrrrrrrrrrrrrrrrrrrrrrrr21919;;491;;rrrrrrrrrrrrrrrrrr",
"rrrrrrrrrrrrrrrrrrrrrrrrrrrrrrrrr1+;;;;=119;;rrrrrrrrrrrrrrrrrrr",
"rrrrrrrrrrrrrrrrrrrrrrrrrrrrrrr&>;..9;r;=;;14rrrrrrrrrrrrrrrrrrr",
"rrrrrrrrrrrrrrrrrrrrrrrrrrrrrrr;;;+9rrr*>1991rrrrrrrrrrrrrrrrrrr",
"rrrrrrrrrrrrrrrrrrrrrrrrrrrrrr9;;99rrrr;;;99;;rrrrrrrrrrrrrrrrrr",
"rrrrrrrrrrrrrrrrrrrrrrrrrrrrr99199rrrrr;=9991rrrrrrrrrrrrrrrrrrr",
"rrrrrrrrrrrrrrrrrrrrrrrrrrr 43399rrrrrr;;;999rrrrrrrrrrrrrrrrrrr",
"rrrrrrrrrrrrrrrrrrrrrrrrrrr..>>9rrrrrrrr;;294rrrrrrrrrrrrrrrrrrr",
"rrrrrrrrrrrrrrrrrrrrrrrrrr4+;;;;rrrrrrr;;;X41rrrrrrrrrrrrrrrrrrr",
"rrrrrrrrrrrrrrrrrrrrrrrrr9191>=rrrrrrrr;==..;;rrrrrrrrrrrrrrrrrr",
"rrrrrrrrrrrrrrrrrrrrrrrr99;;9rrrrrrrrrr#;>+;;rrrrrrrrrrrrrrrrrrr",
"rrrrrrrrrrrrrrrrrrrrrrr399199rrrrrrrrrr&;;;19rrrrrrrrrrrrrrrrrrr",
"rrrrrrrrrrrrrrrrrrrrrr3>9999rrrrrrrrrrr=;1999rrrrrrrrrrrrrrrrrrr",
"rrrrrrrrrrrrrrrrrrrrr1>;;99rrrrrrrrrrrr;;9999rrrrrrrrrrrrrrrrrrr",
"rrrrrrrrrrrrrrrrrrrr9;;;99rrrrrrrrrrrrr;;9499rrrrrrrrrrrrrrrrrrr",
"rrrrrrrrrrrrrrrrrrrr91>99rrrrrrrrrrrrrr*;;199rrrrrrrrrrrrrrrrrrr",
"rrrrrrrrrrrrrrrrrrr94999rrrrrrrrrrrrrrr;%;;;9rrrrrrrrrrrrrrrrrrr",
"rrrrrrrrrrrrrrrrrr991999rrrrrrrrrrrrrrr;;9199rrrrrrrrrrrrrrrrrrr",
"rrrrrrrrrrrrrrrrr999;;9rrrrrrrrrrrrrrrr;;;999rrrrrrrrrrrrrrrrrrr",
"rrrrrrrrrrrrrrrr&99919rrrrrrrrrrrrrrrrrr;;999rrrrrrrrrrrrrrrrrrr",
"rrrrrrrrrrrrrrr ;;999rrrrrrrrrrrrrrrrrrr19999rrrrrrrrrrrrrrrrrrr",
"rrrrrrrrrrrrrrr..;99rrrrrrrrrrrrrrrrrrr$99949rrrrrrrrrrrrrrrrrrr",
"rrrrrrrrrrrrrr9+199rrrrrrrrrrrrrrrrrrrr%;9919rrrrrrrrrrrrrrrrrrr",
"rrrrrrrrrrrrrr99999rrrrrrrrrrrrrrrrrrrr%%99%;rrrrrrrrrrrrrrrrrrr",
"rrrrrrrrrrrrr19499rrrrrrrrrrrrrrrrrrrrr;%29-9rrrrrrrrrrrrrrrrrrr",
"rrrrrrrrrrrr9;;19rrrrrrrrrrrrrrrrrrrrrr;%X9=;rrrrrrrrrrrrrrrrrrr",
"rrrrrrrrrrr9919;;rrrrrrrrrrrrrrrrrrrrrr$%..;;rrrrrrrrrrrrrrrrrrr",
"rrrrrrrrrr+94991rrrrrrrrrrrrrrrrrrrrrrr==X9;;rrrrrrrrrrrrrrrrrrr",
"rrrrrrrrr9..199rrrrrrrrrrrrrrrrrrrrrrrr;;;;19rrrrrrrrrrrrrrrrrrr",
"rrrrrrrrO9+9;;9rrrrrrrrrrrrrrrrrrrrrrrr=;;999rrrrrrrrrrrrrrrrrrr",
"rrrrrrr9..9919rrrrrrrrrrrrrrrrrrrrrrrrrr;9499rrrrrrrrrrrrrrrrrrr",
"rrrrrr49o>999rrrrrrrrrrrrrrrrrrrrrrrrrrrr9199rrrrrrrrrrrrrrrrrrr",
"rrrr;919;;;rrrrrrrrrrrrrrrrrrrrrrrrrrrrr$9;=9rrrrrrrrrrrrrrrrrrr",
"rrrr;;;;1>rrrrrrrrrrrrrrrrrrrrrrrrrrrrrr%=1,9rrrrrrrrrrrrrrrrrrr",
"rrrr19199rrrrrrrrrrrrrrrrrrrrrrrrrrrrrrr;;9&;rrrrrrrrrrrrrrrrrrr",
"rrrr99rrrrrrrrrrrrrrrrrrrrrrrrrrrrrrrrrr;;;;;rrrrrrrrrrrrrrrrrrr",
"rrrrrrrrrrrrrrrrrrrrrrrrrrrrrrrrrrrrrrrr=14;;rrrrrrrrrrrrrrrrrrr",
"rrrrrrrrrrrrrrrrrrrrrrrrrrrrrrrrrrrrrrrrr91;;rrrrrrrrrrrrrrrrrrr",
"rrrrrrrrrrrrrrrrrrrrrrrrrrrrrrrrrrrrrrrrr9;;rrrrrrrrrrrrrrrrrrrr",
"rrrrrrrrrrrrrrrrrrrrrrrrrrrrrrrrrrrrrrrrr91rrrrrrrrrrrrrrrrrrrrr",
"rrrrrrrrrrrrrrrrrrrrrrrrrrrrrrrrrrrrrrrrrrrrrrrrrrrrrrrrrrrrrrrr",
"rrrrrrrrrrrrrrrrrrrrrrrrrrrrrrrrrrrrrrrrrrrrrrrrrrrrrrrrrrrrrrrr"
};
