/* XPM */
static char *result[] = {
/* columns rows colors chars-per-pixel */
"64 64 17 1 ",
"  c black",
". c #090300",
"X c #613D24",
"o c #DD2C00",
"O c #FF3D00",
"+ c #896347",
"@ c #FFAB00",
"# c #FDD835",
"$ c #C68642",
"% c #0097A7",
"& c #00BCD4",
"* c #FFF59D",
"= c #80DEEA",
"- c #EEEEEE",
"; c #FFF3E0",
": c gray98",
"> c None",
/* pixels */
">>>>>>>>>>>>>>>>>>>>>>>>>>>>>>>>>>>>>>>>>>>>>>>>>>>>>>>>>>>>>>>>",
">>>>>>>>>>>>>>>>>>>>>>>>>   >>>>>>>>>>>>>>>>>>>>>>>>>>>>>>>>>>>>",
">>>>>>>>>>>>>>>>>>>>>>>  +X+  >>>>>>>>>>>>>>>>>>>>>>>>>>>>>>>>>>",
">>>>>>>>>>>>>>>>>>>>>  ++$X$++  >>>>>>>>>>>>>>>>>>>>>>>>>>>>>>>>",
">>>>>>>>>>>>>>>>>>>  ++$$+X$$+++  >>>>>>>>>>>>>>>>>>>>>>>>>>>>>>",
">>>>>>>>>>>>>>>>>  +++$$+$X$$+$+++  >>>>>>>>>>>>>>>>>>>>>>>>>>>>",
">>>>>>>>>>>>>>>  ++$+$$+$$X$++$+$+++  >>>>>>>>>>>>>>>>>>>>>>>>>>",
">>>>>>>>>>>>>> -.+$+$$+$$+X+$$++$+$+++  >>>>>>>>>>>>>>>>>>>>>>>>",
">>>>>>>>>>>>> -:-.+$$+$$+$X+$+$$++$+$+++  >>>>>>>>>>>>>>>>>>>>>>",
">>>>>>>>>>>> -: :-.$+$$+$$X+$+$+$$++$+$+++  >>>>>>>>>>>>>>>>>>>>",
">>>>>>>>>>> -: # :.+$$+$$+X$++$+$+$$++$+$+++  >>>>>>>>>>>>>>>>>>",
">>>>>>>>>> -: ## :-.$+$$+$X$$$++$+$+$$++$+$+++  >>>>>>>>>>>>>>>>",
">>>>>>>>> -: **** :.+$$+$$X$+$$$++$+$+$$++$+$+++  >>>>>>>>>>>>>>",
">>>>>>>> -: ##*** :-.$+$$+X$+$+$$$++$+$+$$++$+$++. >>>>>>>>>>>>>",
">>>>>>> -: ***##** :.+$$+$X++$+$+$$$++$+$+$$++$+$.: >>>>>>>>>>>>",
">>>>>> -: ******## :-.$+$$X$$++$+$+$$$++$+$+$$+++.:- >>>>>>>>>>>",
">>>>> -: #*  *****# :.+$$+X+$$$++$+$+$$$++$+$+$$.:-:- >>>>>>>>>>",
">>>> -: ** %%  **** :-.$+$X+$+$$$++$+$+$$$++$+$+.:  :- >>>>>>>>>",
">>> -: *## %&%%  *** :.+$$X+$+$+$$$++$+$+$$$++$.:- * :- >>>>>>>>",
">> -: **** %%==%%  # :-.$+X$++$+$+$$$++$+$+$$$+.: *## :- >>>>>>>",
"> -: ##***   %%=&% *# :.+$X$$$++$+$+$$$++$+$+$.:- ##** :- >>>>>>",
">   -#*##****  %%% ** :-.+X++$$$++$+$+$$$++$+$.: ***##* :- >>>>>",
">>> -#***##****  % #*# :..X  ++$$$++$+$+$$$++.:- *##***# :- >>>>",
">>> -#*****##****  *## :-  ##  ++$$$++$+$+$$$.: ##***  ## :- >>>",
">>> -##******##******#-  *#**##  ++$$$++$+$+.:- ***  % *** :- >>",
">>> -#*   *****##****#-#**#****##  ++$$$++$+.: **  %%% **** :- >",
">>> -#* %%  *****##**#-#*###*****##  ++$$$+.:- ** %==% ***##   >",
">>> -#* %&%%  *****###-##*#*##*****##  ++$$.- *## %%%  *##*#- >>",
">>> -## %&==%%  *****#-#**#***##*****##  +    #** %  *##***#- >>",
">>> -#* %&====%%  ***#-#**#*****##*****## #-##***  *##*****#- >>",
">>> -#* %&======%%  *#-#*###******##****###-#*****##*****###- >>",
">>> -#* %&========% ##-##*#*##******##****#-#***##*****##**#- >>",
">>> -## %&&=======% *#-#**#***#  *****##**#-#*##*****##****#- >>",
">>> -#*  %%&&=====% *#-#**#**** O  *****###-##*****##**  **#- >>",
">>> -#**#  %%&&===% *#-#*###*** OOO  *****#-#****##**  % *##- >>",
">>> -#****#  %%&&=% ##-##*#*##* OOOOO  ***#-#**##**  %%% #*#- >>",
">>> -###****#  %%&% *#-#**#***# OooOOO #**#-#*#**  %%=&% **#- >>",
">>> -#**##****#  %% *#-#**#**** OoOooO *###-##*  %%===&% **#- >>",
">>> -#****##****#   *#-#*###*** OoOOoO ***#-#** %=====&% *##- >>",
">>> -#******##******##-##*#*##* OoOOoO ***#-#** %=====&% #*#- >>",
">>>>  ##******##*****#-#**#***# OoOOoO #**#-#*# %=====&% **#- >>",
">>>>>>  ##******##***#-#**#**** OooOoO *###-##* %=====&% **#- >>",
">>>>>>>>  ##******##*#-#*###*** OOOooO ***#-#** %====&&% *##- >>",
">>>>>>>>>>  ##******##-##*#*##* OooO;@ ***#-#** %==&&%%  ###- >>",
">>>>>>>>>>>>  ##*****#-#**#***# OoOo@@ #**#-#*# %&&%%  ##**#- >>",
">>>>>>>>>>>>>>  ##***#-####**** OoOOoO *###-##* %%%  ##****#- >>",
">>>>>>>>>>>>>>>>  ##*#-#  ##*** OooOoO ***#-#** %  ##*****##- >>",
">>>>>>>>>>>>>>>>>>  ##  >>  ##* OOOooO ***#-#**  ##*****##*#- >>",
">>>>>>>>>>>>>>>>>>>>  >>>>>>  # OOOOOO #**#-#**##*****##***#  >>",
">>>>>>>>>>>>>>>>>>>>>>>>>>>>>>  ooOOOO *###-###*****##****  >>>>",
">>>>>>>>>>>>>>>>>>>>>>>>>>>>>>>>  ooOO ***#-#*****##****  >>>>>>",
">>>>>>>>>>>>>>>>>>>>>>>>>>>>>>>>>>  oo ***#-#***##****  >>>>>>>>",
">>>>>>>>>>>>>>>>>>>>>>>>>>>>>>>>>>>>   #**#-#*##****  >>>>>>>>>>",
">>>>>>>>>>>>>>>>>>>>>>>>>>>>>>>>>>>>>>  ###-##****  >>>>>>>>>>>>",
">>>>>>>>>>>>>>>>>>>>>>>>>>>>>>>>>>>>>>>>  #-#***  >>>>>>>>>>>>>>",
">>>>>>>>>>>>>>>>>>>>>>>>>>>>>>>>>>>>>>>>>>  #*  >>>>>>>>>>>>>>>>",
">>>>>>>>>>>>>>>>>>>>>>>>>>>>>>>>>>>>>>>>>>>>  >>>>>>>>>>>>>>>>>>",
">>>>>>>>>>>>>>>>>>>>>>>>>>>>>>>>>>>>>>>>>>>>>>>>>>>>>>>>>>>>>>>>",
">>>>>>>>>>>>>>>>>>>>>>>>>>>>>>>>>>>>>>>>>>>>>>>>>>>>>>>>>>>>>>>>",
">>>>>>>>>>>>>>>>>>>>>>>>>>>>>>>>>>>>>>>>>>>>>>>>>>>>>>>>>>>>>>>>",
">>>>>>>>>>>>>>>>>>>>>>>>>>>>>>>>>>>>>>>>>>>>>>>>>>>>>>>>>>>>>>>>",
">>>>>>>>>>>>>>>>>>>>>>>>>>>>>>>>>>>>>>>>>>>>>>>>>>>>>>>>>>>>>>>>",
">>>>>>>>>>>>>>>>>>>>>>>>>>>>>>>>>>>>>>>>>>>>>>>>>>>>>>>>>>>>>>>>",
">>>>>>>>>>>>>>>>>>>>>>>>>>>>>>>>>>>>>>>>>>>>>>>>>>>>>>>>>>>>>>>>"
};
