/* XPM */
static char *result[] = {
/* columns rows colors chars-per-pixel */
"64 64 104 2 ",
"   c #040505",
".  c #060708",
"X  c #070809",
"o  c #0A0C0C",
"O  c #0C0E10",
"+  c #0E1214",
"@  c #121414",
"#  c #121618",
"$  c #141A1D",
"%  c #1B1C1C",
"&  c #171E22",
"*  c #1A1F21",
"=  c #1A2225",
"-  c #1D262A",
";  c #1F292E",
":  c #232424",
">  c #232728",
",  c #212A2E",
"<  c #2B2C2C",
"1  c #242E34",
"2  c #292F31",
"3  c #243035",
"4  c #2C3134",
"5  c #273339",
"6  c #29343A",
"7  c #2F383C",
"8  c #333435",
"9  c #333738",
"0  c #343A3C",
"q  c #3B3C3C",
"w  c #2D3A41",
"e  c #353D40",
"r  c #3B3F41",
"t  c #324047",
"y  c #3D4244",
"u  c #324148",
"i  c #3D454A",
"p  c #374850",
"a  c #384951",
"s  c #3E5059",
"d  c #424444",
"f  c #424749",
"g  c #444A4D",
"h  c #4A4C4C",
"j  c #444D51",
"k  c #4A4E51",
"l  c #465156",
"z  c #4B5255",
"x  c #4B5459",
"c  c #4E585C",
"v  c #525455",
"b  c #515658",
"n  c #53595C",
"m  c #5B5C5D",
"M  c #455A64",
"N  c #525D62",
"B  c #5A5E61",
"V  c #4D646F",
"C  c #566267",
"Z  c #5C6164",
"A  c #546269",
"S  c #5B676C",
"D  c #5B686E",
"F  c #4E6570",
"G  c #5C6B73",
"H  c #56707D",
"J  c #5F7078",
"K  c #636465",
"L  c #646769",
"P  c #656A6C",
"I  c #6B6C6C",
"U  c #616D74",
"Y  c #6A6F71",
"T  c #677175",
"R  c #6A7275",
"E  c #65747C",
"W  c #6C767B",
"Q  c #6F797E",
"!  c #737474",
"~  c #737778",
"^  c #747A7D",
"/  c #7A7A7B",
"(  c #667881",
")  c #6A7B83",
"_  c #607D8B",
"`  c #717D82",
"'  c #797F82",
"]  c #768187",
"[  c #7A8184",
"{  c #71838C",
"}  c #7C878D",
"|  c #7C888E",
" . c #738891",
".. c #7A8D96",
"X. c #818485",
"o. c #858A8C",
"O. c #838C91",
"+. c #8A9194",
"@. c #85939B",
"#. c #8E999D",
"$. c #97999A",
"%. c #999A9A",
"&. c #8097A2",
"*. c #8A9BA3",
/* pixels */
"V s s - 7 - # o X % < < : u _ M _ M F u u E E D s p { E E { s _ _ _ F _ _ H _ E E D M M s s s V M _ _ H M V u u E { E s M _ _ _ ",
"s ( 5 # % d X o % 8 d   @ e 3 M H _ V { E E ( s E E D M F s s s F s H H _ F s p w M p p J u 6 7 1 w u 6 s s { E E { s _ _ _ H _ ",
"{ { S q d d @ : < 8 .   . & - H _ A E D V s e u w 6 u F s ( w u M _ s F w w N D N N C G E m z S W 7 ; 6 N N D V V s s s V M _ _ ",
"s z i f @ @ @ d v q @   @ @ *.3 M u a F V s G 6 6 u D E { ) ` ( A ..M M ( x a { u ( ..s i g T y e + = ; 7 $ s V a ) u u M H _ _ ",
"s c U > : 8 < m ! q o o = < ^ w u p M G E E g f A l  .) w j z E 6 s E E S F M s 3 1 6 y Z k % # o $ % % @ # N E { { ) ( G ..V H ",
"s u w z q L < < 8   X % : m $ w u { p J D ; c z ` $ , u 5 N S 5 u s p , 5 5 , l - 6 7 6 6 $ $ @ % 8 % @ # = c ) s N N { a M _ _ ",
"M s - < q h < : 8 o o % e O l a F H a t y j I } ; 3 s s w e 6 a s u V V E E { E D A l w 6 k @ d % o : % > X X 3 5 g x 5 u M _ _ ",
"_ 1 # = @ v 8 @ < % 8 # P = M s H H a N y u s 5 u - w , & f f i = = s = g x 1 f l C 3 a l h > % % @ d h 8 X O l 5 u u F M M _ _ ",
"_ , @ 1 . % % q v h : @ f M ( H { _ V u M p a V 6 = 3 f i I } q $ o + & h y 4 g G s s M & & 4 < q : d d % . > % - & 1 w F a _ _ ",
"_ a 1 p   q < m / d < @ e F V V M s s M E H { C S R b K k z h & 6 c k 9 Z 9 6 V l F F 3 + w q 9 8 < v K 8   @ X + y z z 1 5 _ _ ",
"F p l N d K 9 9 h @ % , 5 _ _ _ M s _ M ( ..s i c P r f u , 9 @ @ : : 5 - $ $ 3 3 s _ u $ u 8 4 I h d v o X @ r 4 P / k s M _ F ",
"_ H _ b r d & X q o o > w _ V w s s M 1 u 6 p A G 6 = x n z ' v 2 8 N $ y < + = a H _ F = $ 8 9 v d 8 8 : v d I g x h = 6 s u H ",
"s p a w 3 c k k / r q e ..- 5 j { E p w V s s 5 = s 6 Y ~ h f 9 d : P 8 Y B ~ S } S a M 6 & & . h v : m 9 f q h 1 , f # # 6 a _ ",
"{ z & a w ^ [ x L L ` e N N N N E s V p p p s 1 ; F 1 y f X < K K d 4 y 8 h Z k - M F F u ; 6 . v v q v d 9 # v k z ^ r e i *.u ",
" .w w _ = k k * v B x 1 i D F p t - ; A G J s M M M + ; o y m n q X + & f I x 1 s H _ _ M a F + h d . : $ g $ Y R d v v S 9 S M ",
"s s a s # 5 $ = x k w w w s M s C C x A { p _ H { w - y r d 0 = O + $ $ - ; a M F _ F s s s F & , % % d 2 w $ k k = v B x 1 a _ ",
"( w u s w a u - s w l M F N E ` W L C x A w a s s { s C 7 3 x ; N 1 1 - u M M p F u w E { E a 6 M w 1 u 1 u + 3 # # 0 e a u H _ ",
" .` ( G { 3 w 5 w = $ 1 1 6 a 1 6 g D 1 A u u s H G M l p S N S S E A G &.s F H F { E E { s _ F H l M _ H a 6 - = g S x u s _ _ ",
"N N E p M p u , 1 0 > < + # $ ; x W N E ) ) ( G ..t 1 M u D @.- y j J u M F _ E E S F V s s a M s H M p a M s A U C ) w M V F M ",
"E E w a F s & * 2 x 4 @ # $ $ = u S &.p N N { u a V M E y x i l E ^ A a s M F M u M F s ( u u w M w u S { U g j a F s s s V M _ ",
"F a w e & # < % %     : Z I 9 + 1 p w s E x 5 1 3 s s D x 5 4 3 N , M _ _ _ M F F U E { { U H G ( U G U { p s M s u ( 5 , 7 s H ",
"M M s w i 2 > > X d I I / h O e s a w s V s V M s V 3 p w p D C w l s _ F w 6 M M E &.s N x { c A S V M u e u N e D i y Y ) ] w ",
"M _ U b b 2 e m K K v 9 : o : = = 1 M 6 M w - - 6 s 6 p 6 6 p p F s F u w E ( E 1 w 5 e N G w l a V V w N u 3 c  .e Y N W A w _ ",
"H _ S f q 2 v v : % . . < >   o $ _ w w $ = n x r = $ 3 D C C t p _ F { E E { u s F s a F a F s F E E { ) ) j l P l B N u u a s ",
"M s p 5 b f : @ X d m I / ! K v N j 6 $ n 8 8 R h S x x C { s H _ ( U D F F p p u M w w a w u F F { &.s N f x - = = u u s J u u ",
"w 1 F w Z > X % < K %.m 8 h m h % $ h m g P b f h = y 5 M a t t s w e M F s ( 1 5 1 w ( { U p M p s 5 s E S , 2 5 1 n U ) { ) ( ",
"p 3 F & = O X 2 % % @ . q I k . & s G g n b $ C + O & w 7 ( 6 w a M V G U ( E ) N ^ ` N ) p _ H s a 6 u V 3 # # , 6 j { s N N { ",
"_ ( F & 5 + & $       o 2 : O 5 i j e w d z n f R 4 < P 7 D l 4 1 H u C ..p N Z W x p F s s s F s M 1 - & + : > , + # 3 s E { l ",
"V s p 3 a 5 & & o @ o o O # 1 w 1 # s 6 N o.q m K / i 0 c = , T N A 3 w w s ( ( 5 s M s ( u w M M F 5 = % % d r : + - 1 w M s _ ",
"u J { J a s M M w 2 , 1 6 j 3 5 a 6 j > , h h 9 h > 9 # ; ' W n E u s F l u s w F G E { { ` ) H ( p x * d % @ d q 0 & $ a _ H H ",
"( E ) s _ F ( M F F N G { { N j G ( l 6 $ # # 9 y z 6 l c C t V a s a M s w a _ M { ..s N N { a a F v d < 9 < K I 8 & - _ F F _ ",
"F F s s s p 3 w F u N &.s N N E a 6 a ; > j = $ , - V a 7 M M p ( u w M H _ H H p M u s E { l F M w 6 v h L < q > . o i = M s _ ",
"F s E w w M H H _ w a w s ( G e p w s 5 w 1 , N E A w p V E E { { ` ( G ..M H F u s w w s p _ H 5 & s 9 h d % @ : o   : > F F F ",
"E ) ) W ( N E w a p s p s F s _ H F F F p G U U E 1 u M s E &.s N N { p M H _ _ H H _ M H F H _ u = w o : v < % < : % % #.u F M ",
"..M k l N - x  .( p p V s ( M a s s ( M E C M F a l p V 5 p u s E { s F M _ H _ F s s M H V _ _ _ , $   X @ o % < < : @ D M H H ",
"w a ( E x N G ) s _ _ M M w w E { E l p p M M s D 1 , w u s s a F s _ H _ M F w u E E E s M _ _ _ a & +   o d ! / 8 @ % a F _ _ ",
"p s N a D M F s s w a p s E G E { p F F F N S N N ~ ) S S w F s H p p p a s s { E E { s _ _ _ H _ u M k b Y m L r o = 6 6 F _ _ ",
"M p l w s F a ( w w M H E D s F s w 5 M w { { x n n } 1 M _ F H s 5 5 1 5 e a D F F l s s V M _ p - 3 > : : O . % . X $ 6 _ _ F ",
"( F F F G U ) ) ` D l D 1 s a s ) w w s u j e e S E 5 e a u 6 s V e , , w p 1 V V a ) t u a M F w 1 - # o : > h q @ # 2 ..u M x ",
"3 5 M M J ..w x r l 9 j N N A `  .) ( A ( w 1 w s 6 ( w 1 w - u + o @ % > # = E E { { ) A g E a u O . O % < v ~ ~ ! P I Z w M F ",
"( ( ( 1 5 w s S | 0 e ( w  ...M c N  .w p M M x S E E W A y z X . 8 m K % % 6 { ( s N x U $ # +   @ : 8 % @ > 2 d L q + 6 _ _ _ ",
"E _ a s M s i N r F s s 1 3 5 w E { s a a _ F S E 5 j y k 1 $ q P ~ ! % O 5 1 = 6 s E E - = # + d ! / q   X X 8 m d 1 w F _ _ _ ",
"F s s a M s s p M M s G , 6 w w s w M M s _ w u 6 u C C 1 g P K h f X @ . X o 1 s s a 1 s z m ! K ! r     X . X , 1 M s F F F F ",
"l ( w u s M F F D ( )  .S G N J s F F F s M M u = = 1 u e j q + > @ q # . X > { w w u M G P m q @ o # .   . + 1 l a s _ _ _ _ _ ",
"{ { ` ( M U M M _ ..M l x ( a p s s M V 1 a * $ e e g = o O ; g d X.d r v v o.f 5 s F F w & + 8 < h d @ @ < ^ x 1 w F F s s M H ",
"s N N ` p s _ p s u s E N w 1 w E { F w w u f 0 Y o.g = + = g K $.v K v K v o 3 F _ H , O $ j I X./ ! ! K P h & u l u u E { E s ",
"s (  .s w p p 6 w u p s l F ( E E { w ( T n Z N z x $ = w 1 y 9   < f X.% # 6 F _ _ s , ; s i / d < d I y X & M _ u x a j x u _ ",
"s s s s a s s p M M s ( J J S F F s p s x 0 n w ; j # + 6 = & O o q r @ # 0 l F F _ _ H F w X X   8 I q + w w _ E N l s s u w a ",
"w M M a 8 : * , 5 e V V M p V V s E 6 ; 6 3 n b j ] y 0 y ] 1 ; - - = s a F _ _ _ H _ _ H u = = # @ # = a u M F H 6 , , ; C - u ",
"s 5 s O . % 2 9 $ w ( F V M E J { { C y N S n [ h K P [ 0 C s F a s F H F s s M H F _ _ _ H M M i w M M F H 6 w $ # f b z 2 4 ( ",
"- w + O % : : o # s w 1 _ s ) ..s N j N a $ x j = v Z x 1 a _ _ F a V u u E E S e a F H _ _ V V s s V H F F u , f 9 I +.i 0 y { ",
", : : O @ % %     r w D a w s a s E { p s $ 6 $ = N x e u M V s F _ V ( E E { s _ _ _ M _ _ _ H F _ _ H M H T b Y g k f # 4 l 1 ",
"> * : O < 8 <     * M l H w F a s V s _ F u s u > s u F H _ _ H H ( G A M F e 6 6 p a M H _ V s s M H V H _ S j z , = y o + = a ",
": % % O : : %   o * R * - w u M s H H H _ H M s u s M s s s M H F H s a s , l e i x p u F w u E { E s M F s a 6 9 9 8 h > 2 y @.",
"> % % o 8 ! K 8 X : $ 6 , M _ _ p w t w u s H F M F u w E { E p a M M E S | ` ^ ` a ..M M G E E { s _ _ w & F u Z R y x v B e S ",
"k 9 m I m I 8 . @ < 1 f 3 w N p M H H H H F s u s a ) S E { s M l H M ` O.i z l G , w N l S V F s s s V 6 3 F = 8 = o < k 4 1 a ",
"m m m d @ > X X o % + > k i f a w ; = = w - 3 E Q Y z p V s s s M M w w = 6 l N j ; 1 w w s M p ) t t M F 6 7 . o 8 r h * = l H ",
"8   < 8 % h 8 O O 8 b U k 9 & & + 9 R / i < x E E 6 F V s J u 7 M M u s w i x j { U G N { x N ( { ` ( M ( u 5 q 8 K ! i , a H F ",
"4   v I K / Y ! m L m * 6 w 5 N ~ L ~ v j D M u w u N S G { E E A ) 1 u 6 e G 6 l e y 1 6 E ( s N N { 6 s E b Y c c g & 1 a u H ",
"e X h ! 8 < f v 9 O e a e Y K B g w , & + ; & - ( 6 C ) u N N S w 3 w E C N & 3 e i c E c 5 3 s E { s M H S k x u = g # # 6 a _ ",
"M O + . . e B e - e J (  .G 2 3 7 1 e 9 o & i G { 0 i 7 A N E a s E E U N w s e E z E E 6 F s s M a _ M l p 5 n b x ' d e i *.u ",
"F , ; & + ; # , M M ` ) 1 2 2 n K I ' X.! P O.x 4 , N 3 w M s E G S V V u a i j i M M s a a M w H H H w 1 F w ` O.x K P ' e D M ",
"_ F M p w p M a _ p s * $ g x B #.n 4 g n f + w E E a M s H H V s V F s ( u w w M F s G u u M H _ _ H M u _ = x h = v Z x 3 a _ ",
"_ _ _ F _ _ _ _ _ a F s w M & & # $ d ~ f , 5 p F a _ _ _ H V V V E E { ) E A N @.l E ( ` ( D &.M H H _ H F & 6 $ = N x s s H _ "
};
