/* XPM */
static char *result[] = {
/* columns rows colors chars-per-pixel */
"64 64 6 1 ",
"  c #FF5722",
". c #FF9800",
"X c #FFC107",
"o c #FFEB3B",
"O c white",
"+ c None",
/* pixels */
"++++++++++++++++++++++++++++++++++++++++++++++++++++++++++++++++",
"++++++++++++++++++++++++++++++++++++++++++++++++++++++++++++++++",
"++++++++++++++++++++++++++++++++++++++++++++++++++++++++++++++++",
"++++++++++++++++++++++++++++++++++++++++++++++++++++++++++++++++",
"++++++++++++++++++++++++++++++++++++++++++++++++++++++++++++++++",
"++++++++++++++++++++++++++++++++++++++++++++++++++++++++++++++++",
"++++++++++++++++++++++++++++++++++++++++++++++++++++++++++++++++",
"++++++++++++++++++++++++++++++++++++++++++++++++++++++++++++++++",
"++++++++++++++++++++++++++++++++++++++++++++++++++++++++++++++++",
"++++++++++++++++++++++++++++++++++++++++++++++++++++++++++++++++",
"++++++++++++++++++++++++++++++++++++++++++++++++++++++++++++++++",
"+++++++++++++++++++++++++++++    +++++++++++++++++++++++++++++++",
"++++++++++++++++++++++++++        ++++++++++++++++++++++++++++++",
"+++++++++++++++++++++++++          +++++++++++++++++++++++++++++",
"++++++++++++++++++++++++            ++++++++++++++++++++++++++++",
"+++++++++++++++++++++++               ++++++++++++++++++++++++++",
"++++++++++++++++++++++                 +++++++++++++++++++++++++",
"++++++++++++++++++++++                  ++++++++++++++++++++++++",
"+++++++++++++++++++++      .....         +++++++++++++++++++++++",
"++++++++++++++++++++      .........       ++++++++++++++++++++++",
"+++++++++++++++++++      ............      +++++++++++++++++++++",
"+++++++++++++++++++     ..............      ++++++++++++++++++++",
"++++++++++++++++++      ...............      +++++++++++++++++++",
"++++++++++++++++++     .....XXXXXX......      ++++++++++++++++++",
"+++++++++++++++++      ....XXXXXXXXX.....      +++++++++++++++++",
"+++++++++++++++++     ....XXXXXXXXXXXX....     +++++++++++++++++",
"++++++++++++++++      ....XXXXXXXXXXXX.....     ++++++++++++++++",
"++++++++++++++++     ....XXXXXXXXXXXXXX....     ++++++++++++++++",
"+++++++++++++++      ....XXXXooooXXXXXX.....     +++++++++++++++",
"+++++++++++++++      ...XXXXoooooooXXXXX....     +++++++++++++++",
"+++++++++++++++     ....XXXoooooooooXXXX.....    +++++++++++++++",
"+++++++++++++++     ....XXXoooooooooXXXX.....    +++++++++++++++",
"++++++++++++++    .....XXXXoooooOoooXXXXX....     ++++++++++++++",
"++++++++++++++    .....XXXXoooooOoooXXXXX....     ++++++++++++++",
"++++++++++++++    .....XXXXooOOOOoooXXXXX....     ++++++++++++++",
"++++++++++++++    .....XXXXooOOOoooooXXXX.....    ++++++++++++++",
"++++++++++++++    .....XXXXoooooOOoooXXXX.....    ++++++++++++++",
"++++++++++++++    .....XXXXoooooOOoooXXXX.....    ++++++++++++++",
"++++++++++++++     ....XXXXoooooOooooXXXX.....    ++++++++++++++",
"++++++++++++++     ....XXXXooooooooooXXXX....     ++++++++++++++",
"++++++++++++++     ....XXXXoooooooooXXXXX....     ++++++++++++++",
"++++++++++++++     ....XXXXoooooooooXXXXX....     ++++++++++++++",
"+++++++++++++++     ....XXXXXXooooooXXXX.....     ++++++++++++++",
"+++++++++++++++     ....XXXXXXXXXXXXXXXX....     +++++++++++++++",
"+++++++++++++++      ....XXXXXXXXXXXXXX.....     +++++++++++++++",
"++++++++++++++++     .....XXXXXXXXXXXXX....      +++++++++++++++",
"++++++++++++++++      .....XXXXXXXXXXX.....     ++++++++++++++++",
"+++++++++++++++++      ......XXXXXXXX.....      ++++++++++++++++",
"++++++++++++++++++      ..................     +++++++++++++++++",
"+++++++++++++++++++      .................     +++++++++++++++++",
"++++++++++++++++++++       ............        +++++++++++++++++",
"+++++++++++++++++++++             ....        ++++++++++++++++++",
"+++++++++++++++++++++++                      +++++++++++++++++++",
"+++++++++++++++++++++++++                    +++++++++++++++++++",
"++++++++++++++++++++++++++++               +++++++++++++++++++++",
"+++++++++++++++++++++++++++++++          +++++++++++++++++++++++",
"++++++++++++++++++++++++++++++++++++++++++++++++++++++++++++++++",
"++++++++++++++++++++++++++++++++++++++++++++++++++++++++++++++++",
"++++++++++++++++++++++++++++++++++++++++++++++++++++++++++++++++",
"++++++++++++++++++++++++++++++++++++++++++++++++++++++++++++++++",
"++++++++++++++++++++++++++++++++++++++++++++++++++++++++++++++++",
"++++++++++++++++++++++++++++++++++++++++++++++++++++++++++++++++",
"++++++++++++++++++++++++++++++++++++++++++++++++++++++++++++++++",
"++++++++++++++++++++++++++++++++++++++++++++++++++++++++++++++++"
};
