/* XPM */
static char *result[] = {
/* columns rows colors chars-per-pixel */
"64 64 20 1 ",
"  c #E65100",
". c #D77007",
"X c #D0780B",
"o c #EF6C00",
"O c #F06E03",
"+ c #FF6F00",
"@ c #FE7103",
"# c #F8790E",
"$ c #F57F17",
"% c #388E3B",
"& c #388E3C",
"* c #24A343",
"= c #07C04F",
"- c #00C852",
"; c #00C853",
": c #F8880E",
"> c #FE9403",
", c #FF9800",
"< c #F58213",
"1 c None",
/* pixels */
"1111111111111111111111111111111111111111111111111111111111111111",
"1111111111111111111111111111111111111111111111111111111111111111",
"1111111111111111111111111111111111111111111111111111111111111111",
"1111111111111111111111111111111111111111111111111111111111111111",
"1111111111111111111111111111111111111111111111111111111111111111",
"11111111111111111111ooooooooooo111111111111111111111111111111111",
"1111111111111111111oo,>,,,,,,,o111111111111111111111111111111111",
"1111111111111111111o,,:,,,,,>,oo11111111111111111111111111111111",
"1111111111111111111o,,$$,,,>:,,o11111111111111111111111111111111",
"1111111111111111111o,,#+,,,:$$,o11111111111111111111111111111111",
"1111111111111111111o,@+,,,,$$,,o11111111111111111111111111111111",
"1111111111111111111o,#+>,,,:,,,,o1111111111111111111111111111111",
"1111111111111111111o,$$:,,,,,,,,o1111111111111111111111111111111",
"1111111111111111111o,:+$$,,,,,,oo1111111111111111111111111111111",
"1111111111111111111o,,,#+,,,,,+ooo111111111111111111111111111111",
"1111111111111111111oo+,,,,,,,++,,oooo111111111111111111111111111",
"11111111111111oOooooo+++++++++,,,,,,o111111111111111111111111111",
"11111111111111o:,,,,,,,,,,,,,++,,>,,oo11111111111111111111111111",
"11111111111111o$$,,,,,+++++ +++,,:,,,o11111111111111111111111111",
"11111111111111o:,,,,,,++ ++  +,,,$$,,o11111111111111111111111111",
"11111111111111o,,>,,,,+++ +  +,,,:,,,o11111111111111111111111111",
"11111111111111o,,:,,,,,+++ +++,,,,,,,o11111111111111111111111111",
"11111111111111o,,$$,,,,,+++ +,,,,o,,,o11111111111111111111111111",
"1111111111111oo,,:,,,,>,,++++,,>,o,,,o11111111111111111111111111",
"1111111111111o,,,,,,,,:,,,,,,,,:,o,,>oo1111111111111111111111111",
"1111111111111o,,,,,,,,$$,,,,,,>$$o,,:,o1111111111111111111111111",
"1111111111111oo,,,,,,,::,,,,,,::,oo,$$o1111111111111111111111111",
"11111111111111o>,,,+,,,$$,,,,,$$,,o,:,o1111111111111111111111111",
"11111111111111o:,,,o,,,:,,,,,,:,,o+,,,o1111111111111111111111111",
"11111111111111o$$,,o,,,,,,,,,,,,,o,,>,o1111111111111111111111111",
"11111111111111o:,>,o,,,,>,,,,,,,,o,,:,o1111111111111111111111111",
"1111111111111oo,,:,o,,,,:,,,,,,,,o,,$$o1111111111111111111111111",
"1111111111111o,,,$$o,,,,$$,,>,,,,o,,<,o1111111111111111111111111",
"1111111111111o,,,:,oo,,,:,,,:,,,,o,,$$o1111111111111111111111111",
"1111111111111oo,>,,+o,,,,,,,$$,,,o,,:o11111111111111111111111111",
"11111111111111oo:,,+o,,,,,,,:,,,,oo,,o11111111111111111111111111",
"11111111111111oo$$,,o,,,,,,,,,,,,+oo,o11111111111111111111111111",
"11111111111111o,:,,,o,,,,,>,,,,,,o1ooo11111111111111111111111111",
"11111111111111o,,,,ooo,,,,:,,,,,,o111111111111111111111111111111",
"11111111111111oo,,oo1o,,,,$$o,,,,o111111111111111111111111111111",
"111111111111111ooooo1o,,,,:+o,,,o1111111111111111111111111111111",
"111111111111111111111o,,,,,oo,>,o1111111111111111111111111111111",
"111111111111111111111o,,>,,o,,:,o1111111111111111111111111111111",
"111111111111111111111o,,:,,o,,$$o1111111111111111111111111111111",
"111111111111111111111o,,$$,o,,:,o1111111111111111111111111111111",
"111111111111111111111o,,:,,o,,,,o1111111111111111111111111111111",
"111111111111111111111o,,,,,o,,>,o1111111111111111111111111111111",
"111111111111111111111o,,,,,o,,:,o1;;1111111111111111111111111111",
"111111111111111111111o,>,,,o,,$$o;;;;111111111111111111111111111",
"111111111111111111111o,:,,,o,>:,o;;=;;11111111111111111111111111",
"11111111111111111111;o,$$,,o,:,,,o;*;;;1111111111111111111111111",
"1111111111111111111;;o,:,,,o+$$,,o;&%;;;111111111111111111111111",
"111111111111111111;;;o,,,,,o+:,,,o;**;;;111111111111111111111111",
"111111111111111111;;;o,,,,,o+,,,oo;=&&;;111111111111111111111111",
"111111111111111111;=;oo,,,,o+,,oo;;**;;;111111111111111111111111",
"11111111111111111;;*;;oo,,oooooo.=;&&;;;111111111111111111111111",
"11111111111111111;;&&=;Xooo;;;;;**;*;;;1111111111111111111111111",
"11111111111111111;;*-*=-=;;;;=;;&&&;;111111111111111111111111111",
"11111111111111111;;;;&%;*;;;;*;;**;;1111111111111111111111111111",
"111111111111111111;;-*&&&&;;;&&;;;;=;111111111111111111111111111",
"111111111111111111;;;;*;*;;;;*;;;;;*=111111111111111111111111111",
"11111111111111111111;;;;;;;11;;;;;;&%111111111111111111111111111",
"11111111111111111111111;;11111111;;*&&11111111111111111111111111",
"11111111111111111111111111111111111;*;11111111111111111111111111"
};
