/* XPM */
static char *result[] = {
/* columns rows colors chars-per-pixel */
"64 64 6 1 ",
"  c #1565C0",
". c #2196F3",
"X c #29B6F6",
"o c #81D4FA",
"O c white",
"+ c None",
/* pixels */
"++++++++++++++++++++++++++++++++++++++++++++++++++++++++++++++++",
"++++++++++++++++++++++++++++++++++++++++++++++++++++++++++++++++",
"++++++++++++++++++++++++++++++++++++++++++++++++++++++++++++++++",
"++++++++++++++++++++++++++++++++++++++++++++++++++++++++++++++++",
"++++++++++++++++++++++++++++++++++++++++++++++++++++++++++++++++",
"++++++++++++++++++++++++++++++++++++++++++++++++++++++++++++++++",
"++++++++++++++++++++++++++++++++++++++++++++++++++++++++++++++++",
"++++++++++++++++++++++++++++++++++++++++++++++++++++++++++++++++",
"++++++++++++++++++++++++++++++++++++++++++++++++++++++++++++++++",
"++++++++++++++++++++++++++++++++++++++++++++++++++++++++++++++++",
"++++++++++++++++++++++++++++++++++++++++++++++++++++++++++++++++",
"+++++++++++++++++++++++++++++    +++++++++++++++++++++++++++++++",
"++++++++++++++++++++++++++        ++++++++++++++++++++++++++++++",
"+++++++++++++++++++++++++          +++++++++++++++++++++++++++++",
"++++++++++++++++++++++++            ++++++++++++++++++++++++++++",
"+++++++++++++++++++++++               ++++++++++++++++++++++++++",
"++++++++++++++++++++++                 +++++++++++++++++++++++++",
"++++++++++++++++++++++                  ++++++++++++++++++++++++",
"+++++++++++++++++++++      ......        +++++++++++++++++++++++",
"++++++++++++++++++++      .........       ++++++++++++++++++++++",
"+++++++++++++++++++      ............      +++++++++++++++++++++",
"+++++++++++++++++++     ..............      ++++++++++++++++++++",
"++++++++++++++++++      ...............      +++++++++++++++++++",
"++++++++++++++++++     .....XXXXXX......      ++++++++++++++++++",
"+++++++++++++++++     .....XXXXXXXXX.....      +++++++++++++++++",
"+++++++++++++++++     ....XXXXXXXXXXX.....     +++++++++++++++++",
"++++++++++++++++     ....XXXXXXXXXXXXX.....     ++++++++++++++++",
"++++++++++++++++     ....XXXXXXXXXXXXX.....     ++++++++++++++++",
"+++++++++++++++      ....XXXXooooXXXXXX.....     +++++++++++++++",
"+++++++++++++++     ....XXXXooooooXXXXXX....     +++++++++++++++",
"+++++++++++++++    .....XXXooooooooXXXXX.....    +++++++++++++++",
"+++++++++++++++    .....XXXooooooooXXXXX.....    +++++++++++++++",
"++++++++++++++    .....XXXXoooooOoooXXXXX....     ++++++++++++++",
"++++++++++++++    .....XXXXoooooOoooXXXXX....     ++++++++++++++",
"++++++++++++++   ......XXXXooOOOOoooXXXXX....     ++++++++++++++",
"++++++++++++++   ......XXXXooOOOoooooXXXX.....    ++++++++++++++",
"++++++++++++++   ......XXXXoooooOOoooXXXX.....    ++++++++++++++",
"++++++++++++++   ......XXXXoooooOOoooXXXX.....    ++++++++++++++",
"+++++++++++++     .....XXXXoooooOooooXXXX.....    ++++++++++++++",
"+++++++++++++     .....XXXXooooooooooXXXX....     ++++++++++++++",
"+++++++++++++     .....XXXXoooooooooXXXXX....     ++++++++++++++",
"++++++++++++++     ....XXXXXoooooooXXXXX.....     ++++++++++++++",
"+++++++++++++++    .....XXXXXXooooXXXXXX.....     ++++++++++++++",
"+++++++++++++++     ....XXXXXXXXXXXXXXXX....     +++++++++++++++",
"+++++++++++++++     .....XXXXXXXXXXXXXX.....     +++++++++++++++",
"++++++++++++++++     ....XXXXXXXXXXXXXX....      +++++++++++++++",
"++++++++++++++++     .....XXXXXXXXXXXX.....     ++++++++++++++++",
"+++++++++++++++++     ......XXXXXXXXX.....      ++++++++++++++++",
"++++++++++++++++++      ..................     +++++++++++++++++",
"+++++++++++++++++++      .................     +++++++++++++++++",
"++++++++++++++++++++      .............        +++++++++++++++++",
"+++++++++++++++++++++            .....        ++++++++++++++++++",
"+++++++++++++++++++++++                      +++++++++++++++++++",
"++++++++++++++++++++++++                     +++++++++++++++++++",
"++++++++++++++++++++++++++++               +++++++++++++++++++++",
"+++++++++++++++++++++++++++++++          +++++++++++++++++++++++",
"++++++++++++++++++++++++++++++++++++++++++++++++++++++++++++++++",
"++++++++++++++++++++++++++++++++++++++++++++++++++++++++++++++++",
"++++++++++++++++++++++++++++++++++++++++++++++++++++++++++++++++",
"++++++++++++++++++++++++++++++++++++++++++++++++++++++++++++++++",
"++++++++++++++++++++++++++++++++++++++++++++++++++++++++++++++++",
"++++++++++++++++++++++++++++++++++++++++++++++++++++++++++++++++",
"++++++++++++++++++++++++++++++++++++++++++++++++++++++++++++++++",
"++++++++++++++++++++++++++++++++++++++++++++++++++++++++++++++++"
};
